<svg xmlns="http://www.w3.org/2000/svg" viewBox="0 0 220 56" width="220" height="56" role="img" aria-label="HTX OTC BD">
  <title>HTX OTC BD</title>
  <g transform="translate(15.8 8) scale(0.1967)">
    <path fill="#242D50" d="M87.0818 62.636C87.6838 32.826 70.8038 6.85 62.0118 0.606999C61.9718 0.566799 61.1888 0.145297 61.2488 1.3096C61.2488 1.3296 61.2288 1.3296 61.2288 1.3497C60.3258 57.658 31.3818 72.834 15.6658 93.47C-19.2592 139.359 9.88484 191.713 47.6398 201.629C48.2828 201.79 50.0288 202.312 53.3408 202.994C55.0668 203.356 55.5688 201.89 54.3038 199.702C49.7878 191.853 41.7588 178.604 40.1738 161.581C36.5608 122.055 86.3788 97.324 87.0818 62.636Z"/>
    <path fill="#008CD6" d="M106.11 81.727C105.809 81.506 105.388 81.526 105.348 81.907C104.545 89.074 97.138 103.929 87.383 117.82C54.545 164.653 71.085 185.891 83.931 200.626C86.299 203.356 87.483 202.754 88.728 200.807C89.892 198.96 91.658 196.611 99.246 193.018C100.43 192.456 129.093 177.24 132.204 142.592C135.195 109.068 113.697 87.869 106.11 81.727Z"/>
  </g>
  <text x="56" y="36" font-family="Arial, Helvetica, sans-serif" font-size="24" font-weight="700" letter-spacing="0.5" fill="#111827">HTX</text>
  <text x="112" y="36" font-family="Arial, Helvetica, sans-serif" font-size="21" font-weight="400" letter-spacing="1.5" fill="#111827" opacity="0.72">OTC BD</text>
</svg>
